<!--?xml version="1.0" encoding="utf-8"?-->
<!-- Generator: Adobe Illustrator 16.2.0, SVG Export Plug-In . SVG Version: 6.00 Build 0)  -->

<svg version="1.1" xmlns="http://www.w3.org/2000/svg" xmlns:xlink="http://www.w3.org/1999/xlink" x="0px" y="0px" width="500px" height="500px" viewBox="0 0 500 500" enable-background="new 0 0 500 500" xml:space="preserve">
<g id="Layer_1">
</g>
<g id="Layer_2">
	<g>
		<path fill="none" stroke="#E8E8E8" stroke-miterlimit="10" d="M252.758,228.736L223.524,121.75L257.742,125.842L
			278.773,202.73L346.154,221.078L358.969,257.449Z" class="REZdlkKm_0"></path>
		<path fill="none" stroke="#E8E8E8" stroke-miterlimit="10" d="M177.129,212.406L141.514,202.864L220.102,123.167L
			229.726,158.663Z" class="REZdlkKm_1"></path>
		<path fill="none" stroke="#E8E8E8" stroke-miterlimit="10" d="M280.967,338.135L271.535,302.422L322.666,251.588L
			358.305,261.08Z" class="REZdlkKm_2"></path>
		<path fill="none" stroke="#E8E8E8" stroke-miterlimit="10" d="M192.021,289.127L176.058,215.916L140.3,206.336L
			164.404,317.541L277.43,339.148L267.984,303.912Z" class="REZdlkKm_3"></path>
		<path fill="none" stroke="#E8E8E8" stroke-miterlimit="10" d="M230.91,162.699L249.775,231.729L318.697,250.361L
			268.516,300.252L195.288,286.229L179.64,215.083Z" class="REZdlkKm_4"></path>
		<path fill="none" stroke="#E8E8E8" stroke-miterlimit="10" d="M281.756,199.743L260.629,122.495L220.362,117.68L
			136.028,203.206L161.202,320.529L280.566,343.711L363.973,260.611L348.973,218.044Z" class="REZdlkKm_5"></path>
	</g>
</g>
<style>.REZdlkKm_0{stroke-dasharray:444 446;stroke-dashoffset:445;animation:REZdlkKm_draw 4000ms ease-in-out 0ms forwards;}.REZdlkKm_1{stroke-dasharray:261 263;stroke-dashoffset:262;animation:REZdlkKm_draw 4000ms ease-in-out 400ms forwards;}.REZdlkKm_2{stroke-dasharray:256 258;stroke-dashoffset:257;animation:REZdlkKm_draw 4000ms ease-in-out 800ms forwards;}.REZdlkKm_3{stroke-dasharray:455 457;stroke-dashoffset:456;animation:REZdlkKm_draw 4000ms ease-in-out 1200ms forwards;}.REZdlkKm_4{stroke-dasharray:435 437;stroke-dashoffset:436;animation:REZdlkKm_draw 4000ms ease-in-out 1600ms forwards;}.REZdlkKm_5{stroke-dasharray:715 717;stroke-dashoffset:716;animation:REZdlkKm_draw 4000ms ease-in-out 2000ms forwards;}@keyframes REZdlkKm_draw{100%{stroke-dashoffset:0;}}@keyframes REZdlkKm_fade{0%{stroke-opacity:1;}96.07843137254902%{stroke-opacity:1;}100%{stroke-opacity:0;}}</style></svg>
