<!--?xml version="1.0" encoding="utf-8"?-->
<!-- Generator: Adobe Illustrator 16.0.0, SVG Export Plug-In . SVG Version: 6.00 Build 0)  -->

<svg version="1.1" id="Layer_1" xmlns="http://www.w3.org/2000/svg" xmlns:xlink="http://www.w3.org/1999/xlink" x="0px" y="0px" width="500px" height="500px" viewBox="0 0 500 500" enable-background="new 0 0 500 500" xml:space="preserve">
<g id="Layer_2">
	<g>
		<path fill="none" stroke="#E8E8E8" stroke-miterlimit="10" d="M252.758,228.736L223.524,121.75l34.218,4.092l21.031,76.888
			l67.381,18.348l12.814,36.371L252.758,228.736z" class="ITHwPOQG_0"></path>
		<path fill="none" stroke="#E8E8E8" stroke-miterlimit="10" d="M177.129,212.406l-35.615-9.542l78.588-79.697l9.624,35.496
			L177.129,212.406z" class="ITHwPOQG_1"></path>
		<path fill="none" stroke="#E8E8E8" stroke-miterlimit="10" d="M280.967,338.135l-9.432-35.713l51.131-50.834l35.639,9.492
			L280.967,338.135z" class="ITHwPOQG_2"></path>
		<path fill="none" stroke="#E8E8E8" stroke-miterlimit="10" d="M192.021,289.127l-15.963-73.211l-35.758-9.58l24.104,111.205
			l113.026,21.607l-9.445-35.236L192.021,289.127z" class="ITHwPOQG_3"></path>
		<path fill="none" stroke="#E8E8E8" stroke-miterlimit="10" d="M230.91,162.699l18.865,69.03l68.922,18.632l-50.182,49.891
			l-73.228-14.023l-15.648-71.146L230.91,162.699z" class="ITHwPOQG_4"></path>
		<path fill="none" stroke="#E8E8E8" stroke-miterlimit="10" d="M281.756,199.743l-21.127-77.248l-40.267-4.815l-84.334,85.526
			l25.174,117.323l119.364,23.182l83.406-83.1l-15-42.567L281.756,199.743z" class="ITHwPOQG_5"></path>
	</g>
</g>
<g>
	<path fill="none" stroke="#E8E8E8" stroke-miterlimit="10" d="M52.66,370.098v-4.266l17.467,32.701l13.405-25.05v4.265
		l-13.405,25.118L52.66,370.098z M52.66,414.85v-40.419l2.031,3.791v36.628H52.66z M85.563,369.691l2.031-3.859v49.018h-2.031
		V369.691z" class="ITHwPOQG_6"></path>
	<path fill="none" stroke="#E8E8E8" stroke-miterlimit="10" d="M120.224,410.381v2.505c-2.911,1.896-6.432,2.641-9.817,2.641
		c-7.583,0-14.353-5.213-14.353-13.337c0-8.125,6.703-13.202,14.353-13.202c3.859,0,7.177,1.219,9.817,3.046v2.438
		c-2.708-2.302-6.093-3.453-9.817-3.453c-6.567,0-12.322,4.266-12.322,11.172c0,6.905,5.822,11.306,12.322,11.306
		C113.86,413.495,117.381,412.548,120.224,410.381z M99.643,382.894c3.317-3.182,7.379-5.01,12.458-5.01
		c5.213,0,12.187,3.317,12.187,13.879v23.087h-2.031v-23.087c0-9.072-5.755-11.848-10.155-11.848c-4.604,0-8.192,1.625-10.968,4.333
		L99.643,382.894z" class="ITHwPOQG_7"></path>
	<path fill="none" stroke="#E8E8E8" stroke-miterlimit="10" d="M134.846,378.561v36.289h-2.031v-36.289H134.846z M146.288,379.915
		c-3.25,0-6.703,0.947-9.411,2.64v-2.302c2.843-1.557,6.229-2.369,9.411-2.369V379.915z" class="ITHwPOQG_8"></path>
	<path fill="none" stroke="#E8E8E8" stroke-miterlimit="10" d="M155.155,414.85h-2.031v-60.459h2.031V414.85z M157.187,399.143
		v-2.573l25.456-18.753l1.219,1.624L157.187,399.143z M162.941,397.45l20.92,16.52l-1.219,1.625l-21.394-16.858L162.941,397.45z" class="ITHwPOQG_9"></path>
	<path fill="none" stroke="#E8E8E8" stroke-miterlimit="10" d="M216.017,367.322v47.527c-0.677,0-1.422-0.067-2.031-0.136v-47.257
		C214.595,367.457,215.339,367.39,216.017,367.322z M218.047,369.285v-2.031h1.151c12.593,0,18.212,5.078,18.212,11.713
		c0,4.739-2.911,8.733-9.14,10.63c8.396,1.76,13.202,6.229,13.202,12.254c0,7.989-8.327,13.066-22.274,13.066h-1.151v-2.031h1.151
		c12.593,0,20.244-4.13,20.244-11.035s-7.65-11.104-20.311-11.104h-1.083v-2.031h1.828c10.765,0,15.504-4.333,15.504-9.749
		c0-5.552-4.942-9.682-16.181-9.682H218.047z" class="ITHwPOQG_10"></path>
	<path fill="none" stroke="#E8E8E8" stroke-miterlimit="10" d="M251.354,378.561v36.289h-2.031v-36.289H251.354z M262.797,379.915
		c-3.25,0-6.703,0.947-9.411,2.64v-2.302c2.843-1.557,6.229-2.369,9.411-2.369V379.915z" class="ITHwPOQG_11"></path>
	<path fill="none" stroke="#E8E8E8" stroke-miterlimit="10" d="M283.309,413.495v1.964c-9.885-0.542-17.806-8.733-17.806-18.754
		c0-10.02,7.921-18.212,17.806-18.754v2.031c-8.801,0.542-15.774,7.786-15.774,16.723S274.508,412.954,283.309,413.495z
		 M285.34,415.459v-1.964c8.801-0.541,15.775-7.854,15.775-16.79s-6.975-16.181-15.775-16.723v-2.031
		c9.885,0.542,17.807,8.734,17.807,18.754C303.146,406.726,295.225,414.917,285.34,415.459z" class="ITHwPOQG_12"></path>
	<path fill="none" stroke="#E8E8E8" stroke-miterlimit="10" d="M312.621,378.561v23.223c0,6.635,4.942,11.238,11.104,11.712v2.031
		c-7.244-0.474-13.135-5.89-13.135-13.743v-23.223H312.621z M325.756,415.526v-2.031c6.16-0.474,11.104-5.077,11.104-11.712v-23.223
		h2.031v23.223C338.891,409.637,333,415.053,325.756,415.526z" class="ITHwPOQG_13"></path>
	<path fill="none" stroke="#E8E8E8" stroke-miterlimit="10" d="M348.23,378.222l13.608,35.206l-1.083,2.776l-14.421-37.305
		L348.23,378.222z M361.839,407.876l5.28-13.676l1.084,2.775l-5.281,13.677L361.839,407.876z M365.292,378.222l3.994,10.359
		l3.995-10.359l1.895,0.678l-4.807,12.457l8.531,22.071l-1.084,2.776l-14.42-37.305L365.292,378.222z M379.983,410.652l-1.083-2.776
		l11.441-29.654l1.896,0.678L379.983,410.652z" class="ITHwPOQG_14"></path>
	<path fill="none" stroke="#E8E8E8" stroke-miterlimit="10" d="M426.223,392.914c0-5.688-4.469-12.999-13-12.999
		c-5.754,0-14.082,4.536-14.082,16.654c0,8.057,6.838,16.52,21.057,16.52c1.285,0,2.707-0.135,4.129-0.271v2.031
		c-1.489,0.136-2.979,0.271-4.332,0.271c-15.031,0-22.885-9.14-22.885-18.551c0-14.082,9.953-18.686,16.113-18.686
		c9.614,0,15.166,7.447,15.166,17.062H401.24c0-0.678,0.067-1.354,0.203-2.031H426.223z" class="ITHwPOQG_15"></path>
	<path fill="none" stroke="#E8E8E8" stroke-miterlimit="10" d="M438.271,378.561v36.289h-2.031v-36.289H438.271z M449.713,379.915
		c-3.25,0-6.703,0.947-9.41,2.64v-2.302c2.843-1.557,6.229-2.369,9.41-2.369V379.915z" class="ITHwPOQG_16"></path>
</g>
<style>.ITHwPOQG_0{stroke-dasharray:444 446;stroke-dashoffset:445;animation:ITHwPOQG_draw 8333ms ease-in-out 0ms forwards;}.ITHwPOQG_1{stroke-dasharray:261 263;stroke-dashoffset:262;animation:ITHwPOQG_draw 8333ms ease-in-out 260ms forwards;}.ITHwPOQG_2{stroke-dasharray:256 258;stroke-dashoffset:257;animation:ITHwPOQG_draw 8333ms ease-in-out 520ms forwards;}.ITHwPOQG_3{stroke-dasharray:455 457;stroke-dashoffset:456;animation:ITHwPOQG_draw 8333ms ease-in-out 781ms forwards;}.ITHwPOQG_4{stroke-dasharray:435 437;stroke-dashoffset:436;animation:ITHwPOQG_draw 8333ms ease-in-out 1041ms forwards;}.ITHwPOQG_5{stroke-dasharray:715 717;stroke-dashoffset:716;animation:ITHwPOQG_draw 8333ms ease-in-out 1302ms forwards;}.ITHwPOQG_6{stroke-dasharray:324 326;stroke-dashoffset:325;animation:ITHwPOQG_draw 8333ms ease-in-out 1562ms forwards;}.ITHwPOQG_7{stroke-dasharray:243 245;stroke-dashoffset:244;animation:ITHwPOQG_draw 8333ms ease-in-out 1822ms forwards;}.ITHwPOQG_8{stroke-dasharray:101 103;stroke-dashoffset:102;animation:ITHwPOQG_draw 8333ms ease-in-out 2083ms forwards;}.ITHwPOQG_9{stroke-dasharray:253 255;stroke-dashoffset:254;animation:ITHwPOQG_draw 8333ms ease-in-out 2343ms forwards;}.ITHwPOQG_10{stroke-dasharray:293 295;stroke-dashoffset:294;animation:ITHwPOQG_draw 8333ms ease-in-out 2604ms forwards;}.ITHwPOQG_11{stroke-dasharray:101 103;stroke-dashoffset:102;animation:ITHwPOQG_draw 8333ms ease-in-out 2864ms forwards;}.ITHwPOQG_12{stroke-dasharray:224 226;stroke-dashoffset:225;animation:ITHwPOQG_draw 8333ms ease-in-out 3125ms forwards;}.ITHwPOQG_13{stroke-dasharray:179 181;stroke-dashoffset:180;animation:ITHwPOQG_draw 8333ms ease-in-out 3385ms forwards;}.ITHwPOQG_14{stroke-dasharray:296 298;stroke-dashoffset:297;animation:ITHwPOQG_draw 8333ms ease-in-out 3645ms forwards;}.ITHwPOQG_15{stroke-dasharray:226 228;stroke-dashoffset:227;animation:ITHwPOQG_draw 8333ms ease-in-out 3906ms forwards;}.ITHwPOQG_16{stroke-dasharray:101 103;stroke-dashoffset:102;animation:ITHwPOQG_draw 8333ms ease-in-out 4166ms forwards;}@keyframes ITHwPOQG_draw{100%{stroke-dashoffset:0;}}@keyframes ITHwPOQG_fade{0%{stroke-opacity:1;}97.60479041916167%{stroke-opacity:1;}100%{stroke-opacity:0;}}</style></svg>
